<svg xmlns="http://www.w3.org/2000/svg" width="152.7" height="167.031" viewBox="0 0 152.7 167.031">
  <g id="Groupe_48" transform="translate(-111.8 -71.769)">
    <g id="Tracé_111">
      <path id="Tracé_112" data-name="Tracé 112" d="M130.1,238.8a17.982,17.982,0,0,1-15.9-9.3,19.608,19.608,0,0,1,0-18.8,17.982,17.982,0,0,1,15.9-9.3,18.392,18.392,0,0,1,9.4,2.5,17.256,17.256,0,0,1,6.6,6.8,18.3,18.3,0,0,1,2.4,9.4,19.332,19.332,0,0,1-2.4,9.4,17.986,17.986,0,0,1-16,9.3Zm0-4.1a13.755,13.755,0,0,0,7.1-1.9,13.42,13.42,0,0,0,5.1-5.2,15.316,15.316,0,0,0,1.9-7.6,15.586,15.586,0,0,0-1.9-7.6,13.42,13.42,0,0,0-5.1-5.2,14.5,14.5,0,0,0-7.1-1.9,13.155,13.155,0,0,0-7,1.9,14.928,14.928,0,0,0-5.1,5.2,15.95,15.95,0,0,0,0,15.1,13.42,13.42,0,0,0,5.1,5.2A11.871,11.871,0,0,0,130.1,234.7Zm24.7-32.5h12.1a11.824,11.824,0,0,1,5.5,1.4,10.715,10.715,0,0,1,4.1,3.8,9.5,9.5,0,0,1,1.5,5.5,10.388,10.388,0,0,1-1.1,4.6,9.78,9.78,0,0,1-3.1,3.6,10.2,10.2,0,0,1-4.4,1.9l-.1.1,10.1,14.7v.2h-5l-9.8-14.6H159V238h-4.2Zm11.8,17.2a8.525,8.525,0,0,0,3.5-.8,6.039,6.039,0,0,0,2.6-2.4,5.888,5.888,0,0,0,1-3.4,7.216,7.216,0,0,0-.8-3.2,6.894,6.894,0,0,0-2.4-2.4,6.324,6.324,0,0,0-3.5-.9h-8v13.2h7.6Zm17.5-17.2h4.2V238h-4.2Zm28.3,36.6a17.982,17.982,0,0,1-15.9-9.3,19.608,19.608,0,0,1,0-18.8,17.982,17.982,0,0,1,15.9-9.3,18.392,18.392,0,0,1,9.4,2.5,17.256,17.256,0,0,1,6.6,6.8,18.3,18.3,0,0,1,2.4,9.4,19.332,19.332,0,0,1-2.4,9.4,17.959,17.959,0,0,1-6.6,6.8A18.392,18.392,0,0,1,212.4,238.8Zm0-4.1a13.755,13.755,0,0,0,7.1-1.9,13.42,13.42,0,0,0,5.1-5.2,15.316,15.316,0,0,0,1.9-7.6,15.586,15.586,0,0,0-1.9-7.6,13.42,13.42,0,0,0-5.1-5.2,14.5,14.5,0,0,0-7.1-1.9,13.755,13.755,0,0,0-7.1,1.9,14.928,14.928,0,0,0-5.1,5.2,15.316,15.316,0,0,0-1.9,7.6,15.863,15.863,0,0,0,1.9,7.6,13.42,13.42,0,0,0,5.1,5.2A12.86,12.86,0,0,0,212.4,234.7Zm24.7-32.5h5.2l17.9,28.5h.2l-.2-6.9V202.2h4.3V238H260l-18.8-29.9H241l.2,6.9v23H237V202.2Z" fill="#212121"/>
    </g>
    <g id="Groupe_56" transform="translate(47.936 297.769) rotate(-90)">
      <g id="Union_1">
        <path id="Tracé_113" data-name="Tracé 113" d="M117,141.1a10.243,10.243,0,0,1,10.2-10.2,10.879,10.879,0,0,1,3.6.6l13.5-20a10.374,10.374,0,0,1-3.1-7.3h0a10.21,10.21,0,0,1,20.2-2.1h20.2a10.206,10.206,0,1,1,17.2,9.3l13.1,20.2a10.065,10.065,0,0,1,3.9-.8,10.2,10.2,0,0,1,0,20.4,10.457,10.457,0,0,1-3.9-.8l-13.1,20.2a10.224,10.224,0,0,1,3,7.2h0a10.21,10.21,0,0,1-20.2,2.1H161.4a10.21,10.21,0,0,1-20.2-2.1h0a10.3,10.3,0,0,1,2.7-6.9l-13.3-20.3a10.16,10.16,0,0,1-13.6-9.5Zm13.4-5.4a5.949,5.949,0,0,0-3.2-.9,6.2,6.2,0,0,0,0,12.4,6.5,6.5,0,0,0,3.1-.8h0a6.3,6.3,0,0,0,3.1-5.4h0a6.068,6.068,0,0,0-3-5.3Zm7.1,5.4a10.171,10.171,0,0,1-3.4,7.6l13.1,20a10.434,10.434,0,0,1,4.3-1,15.439,15.439,0,0,1,3,.4l22.9-41.9a1.9,1.9,0,0,1,1.8-1,3.553,3.553,0,0,1,1,.2,1.969,1.969,0,0,1,.8,2.7L158,170a9.754,9.754,0,0,1,3.5,6.1h20a10.3,10.3,0,0,1,10.1-8.4h.1a9.954,9.954,0,0,1,3.8.8l13.1-20.1a10.224,10.224,0,0,1-3-7.2h0a10.05,10.05,0,0,1,3-7.2l-13.1-20.1a9.954,9.954,0,0,1-3.8.8h-.1a9.928,9.928,0,0,1-3-.5l-3,5.5a1.991,1.991,0,0,1-3.5-1.9l3-5.5a10.277,10.277,0,0,1-3.5-6h-20a10.3,10.3,0,0,1-10.1,8.4,12.171,12.171,0,0,1-3.8-.7l-13.4,19.9a9.216,9.216,0,0,1,3.2,7.2Zm10.2,31.8a6.407,6.407,0,0,0-2.5,4.9h0a6.231,6.231,0,0,0,6.2,6.2,6.146,6.146,0,0,0,6.2-6.1v-.1h0a6.317,6.317,0,0,0-3.3-5.5h0a5.918,5.918,0,0,0-2.9-.7,7.191,7.191,0,0,0-3.7,1.3Zm10-68.9a6.2,6.2,0,0,0-12.4.2h0a6.268,6.268,0,0,0,2.8,5.2.1.1,0,0,1,.1.1,6.387,6.387,0,0,0,3.3,1,6.231,6.231,0,0,0,6.2-6.2V104Zm37.5,68.8h0a6.3,6.3,0,0,0-3.5-1.1h-.1a6.231,6.231,0,0,0-6.2,6.2v.1a6.2,6.2,0,0,0,12.4-.1h0A5.694,5.694,0,0,0,195.2,172.8Zm-9.8-68.6h0a6.34,6.34,0,0,0,3.1,5.5.1.1,0,0,1,.1.1,6.109,6.109,0,0,0,3,.8h.1a5.987,5.987,0,0,0,3.4-1.1h0a6.188,6.188,0,0,0-3.5-11.3,5.994,5.994,0,0,0-6.2,6Zm27.1,31.6h0a6.286,6.286,0,0,0-2.8,5.2h0a6,6,0,0,0,2.7,5.1h.1a5.345,5.345,0,0,0,3.5,1,6.2,6.2,0,1,0,0-12.4A8.014,8.014,0,0,0,212.5,135.8Z" fill="#212121"/>
      </g>
    </g>
  </g>
</svg>
